<svg width="196" height="40" viewBox="0 0 196 40" fill="none" xmlns="http://www.w3.org/2000/svg">
<path d="M26.9834 3.33333H13.0167C6.95004 3.33333 3.33337 6.95 3.33337 13.0167V26.9667C3.33337 33.05 6.95004 36.6667 13.0167 36.6667H26.9667C33.0334 36.6667 36.65 33.05 36.65 26.9833V13.0167C36.6667 6.95 33.05 3.33333 26.9834 3.33333ZM19.1667 28.75C19.1667 29.35 18.5667 29.75 18.0167 29.5167C16 28.65 13.3667 27.85 11.5334 27.6167L11.2167 27.5833C10.2 27.45 9.36671 26.5 9.36671 25.4667V12.6333C9.36671 11.35 10.4 10.4 11.6667 10.5C13.75 10.6667 16.8334 11.6667 18.7667 12.7667C19.0334 12.9167 19.1667 13.2 19.1667 13.4833V28.75ZM30.6334 25.45C30.6334 26.4833 29.8 27.4333 28.7834 27.5667L28.4334 27.6C26.6167 27.85 24 28.6333 21.9834 29.4833C21.4334 29.7167 20.8334 29.3167 20.8334 28.7167V13.4667C20.8334 13.1667 20.9834 12.8833 21.25 12.7333C23.1834 11.65 26.2 10.6833 28.25 10.5H28.3167C29.6 10.5 30.6334 11.5333 30.6334 12.8167V25.45Z" fill="#546FFF"/>
<path d="M59.392 30.32C59.136 30.32 58.8693 30.2773 58.592 30.192C58.336 30.1067 58.1227 29.904 57.952 29.584C57.7813 29.264 57.696 28.7733 57.696 28.112C57.696 27.6427 57.728 27.0667 57.792 26.384C57.8773 25.7013 57.984 24.9653 58.112 24.176C58.2827 23.1093 58.4213 21.9893 58.528 20.816C58.656 19.6213 58.72 18.4053 58.72 17.168C58.72 16.1653 58.6667 15.3013 58.56 14.576C58.4747 13.8293 58.3573 13.2533 58.208 12.848C57.3973 12.8693 56.6293 12.9227 55.904 13.008C55.1787 13.0933 54.4427 13.232 53.696 13.424C53.504 13.4453 53.3333 13.4773 53.184 13.52C53.056 13.5413 52.928 13.552 52.8 13.552C52.608 13.552 52.4693 13.52 52.384 13.456C52.2987 13.3707 52.256 13.1787 52.256 12.88C52.256 12.5173 52.3093 12.144 52.416 11.76C52.5227 11.3547 52.6827 11.0133 52.896 10.736C53.1093 10.4373 53.3547 10.224 53.632 10.096C53.9307 9.94667 54.2507 9.85067 54.592 9.808C55.1253 9.744 55.808 9.69067 56.64 9.648C57.472 9.584 58.3787 9.53067 59.36 9.488C60.3627 9.44533 61.344 9.424 62.304 9.424C63.8613 9.424 64.9707 9.43467 65.632 9.456C66.3147 9.47733 66.7733 9.50933 67.008 9.552C67.3067 9.59467 67.5093 9.69067 67.616 9.84C67.744 9.968 67.808 10.1813 67.808 10.48C67.808 11.056 67.552 11.632 67.04 12.208C66.8267 12.464 66.6027 12.6667 66.368 12.816C66.1333 12.944 65.824 12.9973 65.44 12.976C65.0987 12.9333 64.5973 12.9013 63.936 12.88C63.2747 12.8587 62.5387 12.848 61.728 12.848C61.7067 13.5947 61.6427 14.4693 61.536 15.472C61.4507 16.4533 61.344 17.4453 61.216 18.448C61.088 19.4293 60.9813 20.4107 60.896 21.392C60.8107 22.3733 60.768 23.2693 60.768 24.08C60.768 24.8267 60.832 25.488 60.96 26.064C61.1093 26.6187 61.3973 27.0987 61.824 27.504C62.1227 27.8027 62.272 28.1227 62.272 28.464C62.272 28.9333 62.0053 29.36 61.472 29.744C60.9387 30.128 60.2453 30.32 59.392 30.32ZM68.3177 30.416C67.0378 30.416 66.0031 30.0213 65.2138 29.232C64.4458 28.4213 64.0617 27.2693 64.0617 25.776C64.0617 24.7093 64.2644 23.6533 64.6697 22.608C65.0964 21.5413 65.7044 20.5813 66.4938 19.728C67.2831 18.8747 68.2324 18.192 69.3418 17.68C70.4511 17.168 71.6991 16.912 73.0858 16.912C74.3658 16.912 75.4538 17.136 76.3498 17.584C77.2671 18.0107 77.7258 18.5973 77.7258 19.344C77.7258 19.536 77.7044 19.792 77.6618 20.112C77.6191 20.4107 77.5658 20.656 77.5018 20.848C77.4378 21.0187 77.3418 21.1787 77.2138 21.328C77.1071 21.456 76.9578 21.52 76.7658 21.52C76.6804 21.52 76.5204 21.488 76.2858 21.424C76.2004 21.872 76.1364 22.3093 76.0938 22.736C76.0511 23.1627 76.0298 23.5893 76.0298 24.016C76.0298 24.8267 76.1471 25.552 76.3818 26.192C76.6378 26.8107 77.1284 27.1947 77.8538 27.344C78.0458 27.3867 78.1951 27.4507 78.3018 27.536C78.4298 27.6213 78.4938 27.8027 78.4938 28.08C78.4938 28.3147 78.4298 28.6133 78.3018 28.976C78.1951 29.3387 77.9711 29.6693 77.6298 29.968C77.3098 30.2453 76.8404 30.384 76.2218 30.384C75.3898 30.384 74.7498 30.0853 74.3018 29.488C73.8538 28.8693 73.6298 27.9947 73.6298 26.864C73.0538 27.9093 72.3178 28.7627 71.4218 29.424C70.5471 30.0853 69.5124 30.416 68.3177 30.416ZM69.3418 27.088C70.1951 27.088 70.9418 26.8213 71.5817 26.288C72.2431 25.7547 72.7551 25.0827 73.1178 24.272C73.3524 23.76 73.5338 23.2053 73.6618 22.608C73.7898 21.9893 73.8751 21.3813 73.9178 20.784C73.5551 20.6133 73.1391 20.4747 72.6698 20.368C72.2004 20.2613 71.7098 20.208 71.1978 20.208C69.8964 20.208 68.8191 20.592 67.9658 21.36C67.1338 22.128 66.7178 23.088 66.7178 24.24C66.7178 25.0933 66.9524 25.7867 67.4218 26.32C67.8911 26.832 68.5311 27.088 69.3418 27.088ZM83.7387 30.416C82.9494 30.416 82.2134 30.2987 81.5308 30.064C80.8481 29.8293 80.2934 29.4987 79.8668 29.072C79.4401 28.6453 79.2267 28.1333 79.2267 27.536C79.2267 27.216 79.3014 26.9173 79.4507 26.64C79.6214 26.3413 79.8881 26.192 80.2508 26.192C80.4427 26.192 80.6454 26.2453 80.8588 26.352C81.2428 26.5653 81.7334 26.768 82.3307 26.96C82.9281 27.1307 83.5574 27.216 84.2188 27.216C84.9654 27.216 85.6268 27.1093 86.2028 26.896C86.7788 26.6827 87.0668 26.384 87.0668 26C87.0668 25.7013 86.8428 25.488 86.3948 25.36C85.9681 25.232 85.2428 25.0933 84.2188 24.944C83.5148 24.816 82.8321 24.6667 82.1708 24.496C81.5094 24.3253 80.9654 24.0373 80.5387 23.632C80.1121 23.2053 79.8987 22.5867 79.8987 21.776C79.8987 20.9867 80.1121 20.2293 80.5387 19.504C80.9868 18.7573 81.6481 18.1387 82.5227 17.648C83.3974 17.1573 84.4641 16.912 85.7228 16.912C86.3841 16.912 87.0241 16.9867 87.6428 17.136C88.2614 17.2853 88.7734 17.5093 89.1788 17.808C89.5841 18.1067 89.7868 18.48 89.7868 18.928C89.7868 19.312 89.6481 19.664 89.3708 19.984C89.1148 20.304 88.8054 20.5707 88.4427 20.784C88.1014 20.976 87.8134 21.072 87.5788 21.072C87.4081 21.072 87.2054 20.9547 86.9708 20.72C86.6081 20.4213 86.2028 20.2187 85.7548 20.112C85.3281 19.984 84.9014 19.92 84.4748 19.92C83.8348 19.92 83.3121 20.016 82.9068 20.208C82.5228 20.4 82.3307 20.6453 82.3307 20.944C82.3307 21.2213 82.4907 21.4453 82.8108 21.616C83.1521 21.7867 83.5681 21.9147 84.0588 22C84.5494 22.064 85.0188 22.128 85.4668 22.192C86.7041 22.3627 87.6854 22.6613 88.4108 23.088C89.1361 23.4933 89.4988 24.2187 89.4988 25.264C89.4988 26.0747 89.2641 26.8853 88.7948 27.696C88.3468 28.4853 87.6854 29.136 86.8108 29.648C85.9574 30.16 84.9334 30.416 83.7387 30.416ZM92.5207 30.352C92.2861 30.352 92.0621 30.2773 91.8487 30.128C91.6354 30 91.5501 29.8187 91.5927 29.584C91.9127 27.8773 92.1794 26.1493 92.3927 24.4C92.6274 22.6293 92.7447 20.848 92.7447 19.056C92.7447 17.4773 92.6914 16.048 92.5847 14.768C92.4781 13.488 92.1367 12.2613 91.5607 11.088C91.4541 10.8533 91.3687 10.6507 91.3047 10.48C91.2407 10.3093 91.2087 10.1493 91.2087 10C91.2087 9.59467 91.4434 9.2 91.9127 8.816C92.3821 8.432 92.8834 8.24 93.4167 8.24C94.1847 8.24 94.7074 8.70933 94.9847 9.648C95.2621 10.5867 95.4007 11.9733 95.4007 13.808C95.4007 16.0053 95.2727 17.9253 95.0167 19.568C94.7607 21.1893 94.5367 22.4267 94.3447 23.28L94.4727 23.344C94.8994 22.2987 95.4434 21.296 96.1047 20.336C96.7661 19.3547 97.5234 18.544 98.3767 17.904C99.2514 17.264 100.201 16.944 101.225 16.944C102.227 16.944 102.995 17.2427 103.529 17.84C104.083 18.4373 104.361 19.152 104.361 19.984C104.361 20.9653 104.009 21.84 103.305 22.608C102.601 23.376 101.683 24.016 100.553 24.528C100.83 25.2533 101.225 25.8293 101.737 26.256C102.249 26.6613 102.899 26.864 103.689 26.864C103.945 26.864 104.158 26.8427 104.329 26.8C104.606 26.736 104.745 27.0027 104.745 27.6C104.745 27.9413 104.681 28.3253 104.553 28.752C104.425 29.1787 104.169 29.552 103.785 29.872C103.422 30.1707 102.867 30.32 102.121 30.32C101.118 30.32 100.297 30.032 99.6567 29.456C99.0381 28.8587 98.5474 28.1333 98.1847 27.28C97.8434 26.4053 97.5767 25.5413 97.3847 24.688C97.2141 23.8987 97.4807 23.4827 98.1847 23.44C98.9314 23.3547 99.5607 23.1307 100.073 22.768C100.585 22.4053 100.841 21.9253 100.841 21.328C100.841 20.6453 100.51 20.304 99.8487 20.304C99.4221 20.304 98.9847 20.464 98.5367 20.784C98.1101 21.0827 97.7047 21.4453 97.3207 21.872C96.9581 22.2987 96.6594 22.7147 96.4247 23.12C96.1047 23.6747 95.8274 24.2187 95.5927 24.752C95.3581 25.2853 95.1661 25.8187 95.0167 26.352V27.632C95.0167 28.4213 94.7821 29.072 94.3127 29.584C93.8647 30.096 93.2674 30.352 92.5207 30.352ZM112.809 30.512C112.083 30.512 111.518 30.2773 111.113 29.808C110.729 29.3173 110.505 28.4747 110.441 27.28C110.398 26.0213 110.291 24.7733 110.121 23.536C109.971 22.2773 109.758 21.104 109.481 20.016C109.118 18.4373 108.627 16.9867 108.009 15.664C107.411 14.32 106.579 13.2213 105.513 12.368C105.342 12.2187 105.203 12.08 105.097 11.952C104.99 11.8027 104.937 11.6213 104.937 11.408C104.937 10.9387 105.171 10.4907 105.641 10.064C106.131 9.63733 106.697 9.424 107.337 9.424C108.083 9.424 108.723 9.73333 109.257 10.352C109.79 10.9707 110.27 11.8347 110.697 12.944C111.422 14.6933 111.945 16.656 112.265 18.832C112.606 20.9867 112.798 23.0667 112.841 25.072C112.862 25.6693 112.947 26.0747 113.097 26.288C113.246 26.48 113.502 26.576 113.865 26.576C114.633 26.576 115.379 26.2773 116.105 25.68C116.851 25.0827 117.523 24.272 118.121 23.248C118.739 22.224 119.23 21.0613 119.593 19.76C119.955 18.4587 120.137 17.0933 120.137 15.664C120.137 14.7893 120.073 14.0853 119.945 13.552C119.838 12.9973 119.71 12.56 119.561 12.24C119.369 11.8133 119.273 11.472 119.273 11.216C119.273 10.896 119.422 10.5973 119.721 10.32C120.019 10.0427 120.361 9.81867 120.745 9.648C121.15 9.456 121.513 9.36 121.833 9.36C122.259 9.36 122.569 9.52 122.761 9.84C122.953 10.1387 123.081 10.5227 123.145 10.992C123.209 11.4613 123.241 11.9413 123.241 12.432C123.241 13.904 123.07 15.4613 122.729 17.104C122.387 18.7467 121.897 20.368 121.257 21.968C120.638 23.5467 119.891 24.9867 119.017 26.288C118.163 27.568 117.214 28.592 116.169 29.36C115.123 30.128 114.003 30.512 112.809 30.512ZM126.946 30.416C125.666 30.416 124.632 30.0213 123.842 29.232C123.074 28.4213 122.69 27.2693 122.69 25.776C122.69 24.7093 122.893 23.6533 123.298 22.608C123.725 21.5413 124.333 20.5813 125.122 19.728C125.912 18.8747 126.861 18.192 127.97 17.68C129.08 17.168 130.328 16.912 131.714 16.912C132.994 16.912 134.082 17.136 134.978 17.584C135.896 18.0107 136.354 18.5973 136.354 19.344C136.354 19.536 136.333 19.792 136.29 20.112C136.248 20.4107 136.194 20.656 136.13 20.848C136.066 21.0187 135.97 21.1787 135.842 21.328C135.736 21.456 135.586 21.52 135.394 21.52C135.309 21.52 135.149 21.488 134.914 21.424C134.829 21.872 134.765 22.3093 134.722 22.736C134.68 23.1627 134.658 23.5893 134.658 24.016C134.658 24.8267 134.776 25.552 135.01 26.192C135.266 26.8107 135.757 27.1947 136.482 27.344C136.674 27.3867 136.824 27.4507 136.93 27.536C137.058 27.6213 137.122 27.8027 137.122 28.08C137.122 28.3147 137.058 28.6133 136.93 28.976C136.824 29.3387 136.6 29.6693 136.258 29.968C135.938 30.2453 135.469 30.384 134.85 30.384C134.018 30.384 133.378 30.0853 132.93 29.488C132.482 28.8693 132.258 27.9947 132.258 26.864C131.682 27.9093 130.946 28.7627 130.05 29.424C129.176 30.0853 128.141 30.416 126.946 30.416ZM127.97 27.088C128.824 27.088 129.57 26.8213 130.21 26.288C130.872 25.7547 131.384 25.0827 131.746 24.272C131.981 23.76 132.162 23.2053 132.29 22.608C132.418 21.9893 132.504 21.3813 132.546 20.784C132.184 20.6133 131.768 20.4747 131.298 20.368C130.829 20.2613 130.338 20.208 129.826 20.208C128.525 20.208 127.448 20.592 126.594 21.36C125.762 22.128 125.346 23.088 125.346 24.24C125.346 25.0933 125.581 25.7867 126.05 26.32C126.52 26.832 127.16 27.088 127.97 27.088ZM142.143 30.416C141.077 30.416 140.245 30.1067 139.647 29.488C139.071 28.8693 138.783 27.9733 138.783 26.8C138.783 25.968 138.901 25.1147 139.135 24.24C139.242 23.8773 139.327 23.5147 139.391 23.152C139.455 22.7893 139.487 22.4267 139.487 22.064C139.487 21.1253 139.199 20.5173 138.623 20.24C138.069 19.9413 137.791 19.6213 137.791 19.28C137.791 18.9387 137.93 18.5973 138.207 18.256C138.506 17.9147 138.869 17.6373 139.295 17.424C139.722 17.1893 140.149 17.072 140.575 17.072C141.791 17.072 142.399 18.064 142.399 20.048C142.399 20.688 142.346 21.2853 142.239 21.84C142.154 22.3733 142.047 22.8853 141.919 23.376C141.834 23.7173 141.759 24.0587 141.695 24.4C141.653 24.7413 141.631 25.04 141.631 25.296C141.631 26.3627 142.154 26.896 143.199 26.896C144.181 26.896 145.098 26.3733 145.951 25.328C146.805 24.2827 147.509 22.8213 148.063 20.944L148.031 20.336C147.989 19.2693 148.17 18.4587 148.575 17.904C149.002 17.3493 149.621 17.072 150.431 17.072C151.135 17.072 151.487 17.296 151.487 17.744C151.487 17.8933 151.455 18.0853 151.391 18.32C151.349 18.5547 151.274 18.832 151.167 19.152C150.954 19.9413 150.773 20.784 150.623 21.68C150.474 22.5547 150.399 23.3653 150.399 24.112C150.399 24.944 150.527 25.6373 150.783 26.192C151.039 26.7253 151.519 27.088 152.223 27.28C152.415 27.3013 152.565 27.3653 152.671 27.472C152.799 27.5573 152.863 27.7493 152.863 28.048C152.863 28.56 152.65 29.0613 152.223 29.552C151.797 30.0427 151.178 30.288 150.367 30.288C148.81 30.288 148.031 29.1893 148.031 26.992C148.031 26.608 148.063 26.032 148.127 25.264L148.063 25.232C146.719 28.688 144.746 30.416 142.143 30.416ZM156.083 30.32C155.464 30.32 155.005 30.1493 154.707 29.808C154.408 29.4667 154.259 28.8693 154.259 28.016C154.259 27.6107 154.291 27.088 154.355 26.448C154.419 25.808 154.493 25.1147 154.579 24.368C154.707 23.4507 154.813 22.4907 154.899 21.488C155.005 20.4853 155.059 19.5253 155.059 18.608C155.059 17.3067 154.995 15.9627 154.867 14.576C154.76 13.168 154.44 11.9413 153.907 10.896C153.715 10.4693 153.619 10.16 153.619 9.968C153.619 9.69066 153.736 9.424 153.971 9.168C154.227 8.912 154.536 8.69867 154.899 8.528C155.261 8.336 155.613 8.24 155.955 8.24C156.509 8.24 156.925 8.496 157.203 9.008C157.48 9.49867 157.661 10.1813 157.747 11.056C157.832 11.9093 157.875 12.8907 157.875 14C157.875 15.6853 157.8 17.1467 157.651 18.384C157.523 19.6213 157.395 20.7093 157.267 21.648C157.181 22.2667 157.096 22.8533 157.011 23.408C156.947 23.9627 156.915 24.464 156.915 24.912C156.915 25.6587 157.032 26.2027 157.267 26.544C157.523 26.864 157.928 27.184 158.483 27.504C158.632 27.5893 158.739 27.6747 158.803 27.76C158.888 27.824 158.931 27.9307 158.931 28.08C158.931 28.2507 158.845 28.5173 158.675 28.88C158.504 29.2427 158.205 29.5733 157.779 29.872C157.373 30.1707 156.808 30.32 156.083 30.32ZM164.708 30.416C163.407 30.416 162.468 29.9893 161.892 29.136C161.337 28.2613 161.06 27.1413 161.06 25.776C161.06 25.2853 161.081 24.8053 161.124 24.336C161.188 23.8667 161.252 23.3973 161.316 22.928C161.38 22.4587 161.444 22 161.508 21.552C161.572 21.104 161.625 20.6773 161.668 20.272C161.22 20.4 160.772 20.464 160.324 20.464C159.855 20.464 159.62 20.272 159.62 19.888C159.62 19.4827 159.801 18.992 160.164 18.416C160.527 17.8187 160.975 17.232 161.508 16.656C162.063 16.08 162.607 15.6 163.14 15.216C163.695 14.8107 164.164 14.608 164.548 14.608C165.017 14.608 165.252 15.0133 165.252 15.824C165.252 16.0373 165.231 16.2613 165.188 16.496C165.167 16.7093 165.135 16.9333 165.092 17.168C165.497 17.0827 165.903 17.008 166.308 16.944C166.735 16.88 167.14 16.848 167.524 16.848C168.015 16.848 168.388 16.9333 168.644 17.104C168.921 17.2747 169.06 17.6053 169.06 18.096C169.06 18.608 168.932 19.12 168.676 19.632C168.441 20.144 168.175 20.4 167.876 20.4C167.812 20.4 167.705 20.3893 167.556 20.368C167.407 20.3467 167.225 20.3147 167.012 20.272C166.735 20.208 166.383 20.144 165.956 20.08C165.529 20.016 165.017 19.984 164.42 19.984C164.271 20.6453 164.132 21.328 164.004 22.032C163.897 22.7147 163.844 23.3333 163.844 23.888C163.844 25.1253 164.153 25.968 164.772 26.416C165.391 26.864 166.287 27.088 167.46 27.088C167.823 27.088 168.079 27.152 168.228 27.28C168.377 27.3867 168.452 27.5893 168.452 27.888C168.452 28.592 168.089 29.1893 167.364 29.68C166.639 30.1707 165.753 30.416 164.708 30.416Z" fill="#141522"/>
</svg>
